<mxfile host="app.diagrams.net" agent="Mozilla/5.0 (Windows NT 10.0; Win64; x64) AppleWebKit/537.36 (KHTML, like Gecko) Chrome/135.0.0.0 Safari/537.36" version="26.2.14">
  <diagram id="8J2t-RNVLHFZ-o_scLCf" name="Flowchart Pemesanan Tiket Manual">
    <mxGraphModel dx="1344" dy="582" grid="1" gridSize="10" guides="1" tooltips="1" connect="1" arrows="1" fold="1" page="1" pageScale="1" pageWidth="850" pageHeight="1100" math="0" shadow="0">
      <root>
        <mxCell id="0" />
        <mxCell id="1" parent="0" />
        <mxCell id="_R8NAQsE-fGu6lLesWBl-6" value="" style="edgeStyle=orthogonalEdgeStyle;rounded=0;orthogonalLoop=1;jettySize=auto;html=1;" edge="1" parent="1" source="_R8NAQsE-fGu6lLesWBl-4" target="_R8NAQsE-fGu6lLesWBl-5">
          <mxGeometry relative="1" as="geometry" />
        </mxCell>
        <mxCell id="_R8NAQsE-fGu6lLesWBl-4" value="Mulai" style="ellipse;whiteSpace=wrap;html=1;" vertex="1" parent="1">
          <mxGeometry x="382.5" y="120" width="100" height="40" as="geometry" />
        </mxCell>
        <mxCell id="_R8NAQsE-fGu6lLesWBl-9" value="" style="edgeStyle=orthogonalEdgeStyle;rounded=0;orthogonalLoop=1;jettySize=auto;html=1;" edge="1" parent="1" source="_R8NAQsE-fGu6lLesWBl-5">
          <mxGeometry relative="1" as="geometry">
            <mxPoint x="432.55555555555566" y="280.04255319148933" as="targetPoint" />
          </mxGeometry>
        </mxCell>
        <mxCell id="_R8NAQsE-fGu6lLesWBl-5" value="Menuju Loket Pembelian Tiket" style="shape=parallelogram;perimeter=parallelogramPerimeter;whiteSpace=wrap;html=1;fixedSize=1;" vertex="1" parent="1">
          <mxGeometry x="310" y="200" width="245" height="40" as="geometry" />
        </mxCell>
        <mxCell id="_R8NAQsE-fGu6lLesWBl-12" value="" style="edgeStyle=orthogonalEdgeStyle;rounded=0;orthogonalLoop=1;jettySize=auto;html=1;" edge="1" parent="1" source="_R8NAQsE-fGu6lLesWBl-10" target="_R8NAQsE-fGu6lLesWBl-11">
          <mxGeometry relative="1" as="geometry" />
        </mxCell>
        <mxCell id="_R8NAQsE-fGu6lLesWBl-16" value="" style="edgeStyle=orthogonalEdgeStyle;rounded=0;orthogonalLoop=1;jettySize=auto;html=1;" edge="1" parent="1" source="_R8NAQsE-fGu6lLesWBl-10" target="_R8NAQsE-fGu6lLesWBl-15">
          <mxGeometry relative="1" as="geometry" />
        </mxCell>
        <mxCell id="_R8NAQsE-fGu6lLesWBl-10" value="Memilih metode pembayaran" style="rhombus;whiteSpace=wrap;html=1;" vertex="1" parent="1">
          <mxGeometry x="372.5" y="280" width="120" height="110" as="geometry" />
        </mxCell>
        <mxCell id="_R8NAQsE-fGu6lLesWBl-27" value="" style="edgeStyle=orthogonalEdgeStyle;rounded=0;orthogonalLoop=1;jettySize=auto;html=1;" edge="1" parent="1" source="_R8NAQsE-fGu6lLesWBl-11" target="_R8NAQsE-fGu6lLesWBl-22">
          <mxGeometry relative="1" as="geometry" />
        </mxCell>
        <mxCell id="_R8NAQsE-fGu6lLesWBl-11" value="Memberikan uang tunai" style="shape=parallelogram;perimeter=parallelogramPerimeter;whiteSpace=wrap;html=1;fixedSize=1;" vertex="1" parent="1">
          <mxGeometry x="317.5" y="420" width="230" height="40" as="geometry" />
        </mxCell>
        <mxCell id="_R8NAQsE-fGu6lLesWBl-15" value="Pembayaran via QRIS/Kartu" style="shape=parallelogram;perimeter=parallelogramPerimeter;whiteSpace=wrap;html=1;fixedSize=1;" vertex="1" parent="1">
          <mxGeometry x="160" y="317.5" width="137.5" height="35" as="geometry" />
        </mxCell>
        <mxCell id="_R8NAQsE-fGu6lLesWBl-17" value="&lt;font style=&quot;font-size: 9px;&quot;&gt;Non Tunai&lt;/font&gt;" style="text;html=1;align=center;verticalAlign=middle;whiteSpace=wrap;rounded=0;" vertex="1" parent="1">
          <mxGeometry x="310" y="310" width="60" height="30" as="geometry" />
        </mxCell>
        <mxCell id="_R8NAQsE-fGu6lLesWBl-21" value="&lt;font style=&quot;font-size: 9px;&quot;&gt;&amp;nbsp;Tunai&lt;/font&gt;" style="text;html=1;align=center;verticalAlign=middle;whiteSpace=wrap;rounded=0;" vertex="1" parent="1">
          <mxGeometry x="420" y="390" width="60" height="30" as="geometry" />
        </mxCell>
        <mxCell id="_R8NAQsE-fGu6lLesWBl-31" value="" style="edgeStyle=orthogonalEdgeStyle;rounded=0;orthogonalLoop=1;jettySize=auto;html=1;" edge="1" parent="1" source="_R8NAQsE-fGu6lLesWBl-22" target="_R8NAQsE-fGu6lLesWBl-28">
          <mxGeometry relative="1" as="geometry" />
        </mxCell>
        <mxCell id="_R8NAQsE-fGu6lLesWBl-22" value="Petugas menerima pembayaran" style="shape=parallelogram;perimeter=parallelogramPerimeter;whiteSpace=wrap;html=1;fixedSize=1;" vertex="1" parent="1">
          <mxGeometry x="307.5" y="510" width="250" height="40" as="geometry" />
        </mxCell>
        <mxCell id="_R8NAQsE-fGu6lLesWBl-25" value="" style="endArrow=classic;html=1;rounded=0;entryX=0;entryY=0.5;entryDx=0;entryDy=0;exitX=0.5;exitY=1;exitDx=0;exitDy=0;" edge="1" parent="1" source="_R8NAQsE-fGu6lLesWBl-15" target="_R8NAQsE-fGu6lLesWBl-22">
          <mxGeometry width="50" height="50" relative="1" as="geometry">
            <mxPoint x="490" y="450" as="sourcePoint" />
            <mxPoint x="540" y="400" as="targetPoint" />
            <Array as="points">
              <mxPoint x="230" y="530" />
            </Array>
          </mxGeometry>
        </mxCell>
        <mxCell id="_R8NAQsE-fGu6lLesWBl-35" value="" style="edgeStyle=orthogonalEdgeStyle;rounded=0;orthogonalLoop=1;jettySize=auto;html=1;" edge="1" parent="1" source="_R8NAQsE-fGu6lLesWBl-28" target="_R8NAQsE-fGu6lLesWBl-34">
          <mxGeometry relative="1" as="geometry" />
        </mxCell>
        <mxCell id="_R8NAQsE-fGu6lLesWBl-28" value="Mendapatkan tiket" style="shape=parallelogram;perimeter=parallelogramPerimeter;whiteSpace=wrap;html=1;fixedSize=1;" vertex="1" parent="1">
          <mxGeometry x="298.75" y="590" width="267.5" height="40" as="geometry" />
        </mxCell>
        <mxCell id="_R8NAQsE-fGu6lLesWBl-34" value="Selesai" style="rounded=1;whiteSpace=wrap;html=1;" vertex="1" parent="1">
          <mxGeometry x="368.75" y="690" width="127.5" height="40" as="geometry" />
        </mxCell>
      </root>
    </mxGraphModel>
  </diagram>
</mxfile>
